<svg xmlns="http://www.w3.org/2000/svg" viewBox="0 0 1280 960" width="1280" height="960">
  <title>Illustration fictive : une commune imaginaire au crépuscule</title>
  <defs>
    <linearGradient id="ciel" x1="0" y1="0" x2="0" y2="1">
      <stop offset="0" stop-color="#0b1a5c"/>
      <stop offset="0.55" stop-color="#3b4fb8"/>
      <stop offset="0.8" stop-color="#f4b6a8"/>
      <stop offset="1" stop-color="#ffd8a8"/>
    </linearGradient>
    <linearGradient id="riviere" x1="0" y1="0" x2="0" y2="1">
      <stop offset="0" stop-color="#28357f"/>
      <stop offset="1" stop-color="#0d1440"/>
    </linearGradient>
  </defs>
  <rect width="1280" height="960" fill="url(#ciel)"/>
  <circle cx="930" cy="560" r="90" fill="#ffe7b0" opacity="0.9"/>
  <path d="M0 640 C 200 580 380 620 560 590 S 900 560 1280 600 V 960 H 0Z" fill="#1c2a78" opacity="0.7"/>
  <g fill="#101a52">
    <rect x="80" y="520" width="120" height="260"/><rect x="210" y="470" width="90" height="310"/>
    <rect x="310" y="540" width="150" height="240"/><polygon points="470,780 470,500 540,430 610,500 610,780"/>
    <rect x="532" y="330" width="16" height="110"/><rect x="620" y="560" width="130" height="220"/>
    <rect x="760" y="500" width="100" height="280"/><rect x="870" y="580" width="170" height="200"/>
    <rect x="1050" y="520" width="110" height="260"/><rect x="1170" y="560" width="110" height="220"/>
  </g>
  <g fill="#ffd27a" opacity="0.85">
    <rect x="100" y="560" width="18" height="24"/><rect x="140" y="600" width="18" height="24"/>
    <rect x="230" y="520" width="16" height="22"/><rect x="340" y="580" width="20" height="26"/>
    <rect x="650" y="600" width="18" height="24"/><rect x="790" y="540" width="16" height="22"/>
    <rect x="900" y="620" width="20" height="26"/><rect x="1080" y="560" width="18" height="24"/>
    <rect x="1200" y="600" width="18" height="24"/><rect x="530" y="560" width="20" height="30"/>
  </g>
  <rect y="780" width="1280" height="180" fill="url(#riviere)"/>
  <g stroke="#ffe7b0" stroke-width="4" opacity="0.35">
    <line x1="860" y1="820" x2="1000" y2="820"/><line x1="880" y1="860" x2="980" y2="860"/>
    <line x1="900" y1="900" x2="960" y2="900"/>
  </g>
</svg>
